<?xml version="1.0" encoding="utf-8" standalone="no"?>
<!DOCTYPE svg PUBLIC "-//W3C//DTD SVG 1.1//EN"
  "http://www.w3.org/Graphics/SVG/1.1/DTD/svg11.dtd">
<svg height="257pt" version="1.1" viewBox="0 0 422 257" width="422pt" xmlns="http://www.w3.org/2000/svg" xmlns:xlink="http://www.w3.org/1999/xlink">
 <metadata>
  <rdf:RDF xmlns:cc="http://creativecommons.org/ns#" xmlns:dc="http://purl.org/dc/elements/1.1/" xmlns:rdf="http://www.w3.org/1999/02/22-rdf-syntax-ns#">
   <cc:Work>
    <dc:type rdf:resource="http://purl.org/dc/dcmitype/StillImage"/>
    <dc:date>2022-09-20T17:23:09.129465</dc:date>
    <dc:format>image/svg+xml</dc:format>
    <dc:creator>
     <cc:Agent>
      <dc:title>Matplotlib v3.4.3, https://matplotlib.org/</dc:title>
     </cc:Agent>
    </dc:creator>
   </cc:Work>
  </rdf:RDF>
 </metadata>
 <defs>
  <style type="text/css">*{stroke-linecap:butt;stroke-linejoin:round;}</style>
 </defs>
 <g id="figure_1">
  <g id="patch_1">
   <path d="M 0 257 
L 422 257 
L 422 0 
L 0 0 
z
" style="fill:#ffffff;"/>
  </g>
  <g id="axes_1">
   <g id="patch_2">
    <path d="M 40.065625 229.521875 
L 411.2 229.521875 
L 411.2 13.201347 
L 40.065625 13.201347 
z
" style="fill:#ffffff;"/>
   </g>
   <g id="PathCollection_1">
    <defs>
     <path d="M 0 3 
C 0.795609 3 1.55874 2.683901 2.12132 2.12132 
C 2.683901 1.55874 3 0.795609 3 0 
C 3 -0.795609 2.683901 -1.55874 2.12132 -2.12132 
C 1.55874 -2.683901 0.795609 -3 0 -3 
C -0.795609 -3 -1.55874 -2.683901 -2.12132 -2.12132 
C -2.683901 -1.55874 -3 -0.795609 -3 0 
C -3 0.795609 -2.683901 1.55874 -2.12132 2.12132 
C -1.55874 2.683901 -0.795609 3 0 3 
z
" id="m5fd2106ec1" style="stroke:#1f77b4;"/>
    </defs>
    <g clip-path="url(#pb5e8f9f701)">
     <use style="fill:#1f77b4;stroke:#1f77b4;" x="223.391307" xlink:href="#m5fd2106ec1" y="124.120387"/>
     <use style="fill:#1f77b4;stroke:#1f77b4;" x="225.805236" xlink:href="#m5fd2106ec1" y="148.14473"/>
     <use style="fill:#1f77b4;stroke:#1f77b4;" x="226.265032" xlink:href="#m5fd2106ec1" y="178.376319"/>
     <use style="fill:#1f77b4;stroke:#1f77b4;" x="231.09289" xlink:href="#m5fd2106ec1" y="174.583002"/>
     <use style="fill:#1f77b4;stroke:#1f77b4;" x="252.128559" xlink:href="#m5fd2106ec1" y="136.190033"/>
     <use style="fill:#1f77b4;stroke:#1f77b4;" x="223.391307" xlink:href="#m5fd2106ec1" y="167.456163"/>
     <use style="fill:#1f77b4;stroke:#1f77b4;" x="217.299009" xlink:href="#m5fd2106ec1" y="147.110189"/>
     <use style="fill:#1f77b4;stroke:#1f77b4;" x="222.241817" xlink:href="#m5fd2106ec1" y="163.547897"/>
     <use style="fill:#1f77b4;stroke:#1f77b4;" x="240.978505" xlink:href="#m5fd2106ec1" y="90.785175"/>
     <use style="fill:#1f77b4;stroke:#1f77b4;" x="245.576465" xlink:href="#m5fd2106ec1" y="110.211557"/>
     <use style="fill:#1f77b4;stroke:#1f77b4;" x="215.344876" xlink:href="#m5fd2106ec1" y="129.752889"/>
     <use style="fill:#1f77b4;stroke:#1f77b4;" x="210.631967" xlink:href="#m5fd2106ec1" y="161.478815"/>
     <use style="fill:#1f77b4;stroke:#1f77b4;" x="210.402069" xlink:href="#m5fd2106ec1" y="161.363866"/>
     <use style="fill:#1f77b4;stroke:#1f77b4;" x="205.459262" xlink:href="#m5fd2106ec1" y="156.765906"/>
     <use style="fill:#1f77b4;stroke:#1f77b4;" x="200.631403" xlink:href="#m5fd2106ec1" y="156.421059"/>
     <use style="fill:#1f77b4;stroke:#1f77b4;" x="225.805236" xlink:href="#m5fd2106ec1" y="171.479379"/>
     <use style="fill:#1f77b4;stroke:#1f77b4;" x="231.552686" xlink:href="#m5fd2106ec1" y="198.147549"/>
     <use style="fill:#1f77b4;stroke:#1f77b4;" x="246.611007" xlink:href="#m5fd2106ec1" y="151.248353"/>
     <use style="fill:#1f77b4;stroke:#1f77b4;" x="241.093454" xlink:href="#m5fd2106ec1" y="188.261934"/>
     <use style="fill:#1f77b4;stroke:#1f77b4;" x="193.159718" xlink:href="#m5fd2106ec1" y="185.848005"/>
     <use style="fill:#1f77b4;stroke:#1f77b4;" x="202.355638" xlink:href="#m5fd2106ec1" y="136.190033"/>
     <use style="fill:#1f77b4;stroke:#1f77b4;" x="206.83865" xlink:href="#m5fd2106ec1" y="152.052996"/>
     <use style="fill:#1f77b4;stroke:#1f77b4;" x="245.806363" xlink:href="#m5fd2106ec1" y="140.787994"/>
     <use style="fill:#1f77b4;stroke:#1f77b4;" x="180.17048" xlink:href="#m5fd2106ec1" y="200.446529"/>
     <use style="fill:#1f77b4;stroke:#1f77b4;" x="215.689723" xlink:href="#m5fd2106ec1" y="121.131713"/>
     <use style="fill:#1f77b4;stroke:#1f77b4;" x="235.920749" xlink:href="#m5fd2106ec1" y="116.073957"/>
     <use style="fill:#1f77b4;stroke:#1f77b4;" x="190.51589" xlink:href="#m5fd2106ec1" y="166.421622"/>
     <use style="fill:#1f77b4;stroke:#1f77b4;" x="182.46946" xlink:href="#m5fd2106ec1" y="166.421622"/>
     <use style="fill:#1f77b4;stroke:#1f77b4;" x="212.930947" xlink:href="#m5fd2106ec1" y="149.639067"/>
     <use style="fill:#1f77b4;stroke:#1f77b4;" x="194.998902" xlink:href="#m5fd2106ec1" y="152.512792"/>
     <use style="fill:#1f77b4;stroke:#1f77b4;" x="184.653491" xlink:href="#m5fd2106ec1" y="159.639631"/>
     <use style="fill:#1f77b4;stroke:#1f77b4;" x="230.173298" xlink:href="#m5fd2106ec1" y="124.810081"/>
     <use style="fill:#1f77b4;stroke:#1f77b4;" x="208.907732" xlink:href="#m5fd2106ec1" y="129.408042"/>
     <use style="fill:#1f77b4;stroke:#1f77b4;" x="204.769567" xlink:href="#m5fd2106ec1" y="144.581311"/>
     <use style="fill:#1f77b4;stroke:#1f77b4;" x="225.230491" xlink:href="#m5fd2106ec1" y="129.982787"/>
     <use style="fill:#1f77b4;stroke:#1f77b4;" x="243.277485" xlink:href="#m5fd2106ec1" y="130.327634"/>
     <use style="fill:#1f77b4;stroke:#1f77b4;" x="240.863556" xlink:href="#m5fd2106ec1" y="116.8786"/>
     <use style="fill:#1f77b4;stroke:#1f77b4;" x="266.037389" xlink:href="#m5fd2106ec1" y="116.188906"/>
     <use style="fill:#1f77b4;stroke:#1f77b4;" x="220.632531" xlink:href="#m5fd2106ec1" y="136.419931"/>
     <use style="fill:#1f77b4;stroke:#1f77b4;" x="221.782021" xlink:href="#m5fd2106ec1" y="166.191724"/>
     <use style="fill:#1f77b4;stroke:#1f77b4;" x="205.459262" xlink:href="#m5fd2106ec1" y="171.824226"/>
     <use style="fill:#1f77b4;stroke:#1f77b4;" x="205.68916" xlink:href="#m5fd2106ec1" y="171.479379"/>
     <use style="fill:#1f77b4;stroke:#1f77b4;" x="210.631967" xlink:href="#m5fd2106ec1" y="195.963518"/>
     <use style="fill:#1f77b4;stroke:#1f77b4;" x="233.047024" xlink:href="#m5fd2106ec1" y="111.0162"/>
     <use style="fill:#1f77b4;stroke:#1f77b4;" x="240.633658" xlink:href="#m5fd2106ec1" y="145.271005"/>
     <use style="fill:#1f77b4;stroke:#1f77b4;" x="205.344312" xlink:href="#m5fd2106ec1" y="168.605654"/>
     <use style="fill:#1f77b4;stroke:#1f77b4;" x="232.702177" xlink:href="#m5fd2106ec1" y="131.247226"/>
     <use style="fill:#1f77b4;stroke:#1f77b4;" x="230.862992" xlink:href="#m5fd2106ec1" y="146.305546"/>
     <use style="fill:#1f77b4;stroke:#1f77b4;" x="220.977378" xlink:href="#m5fd2106ec1" y="149.179271"/>
     <use style="fill:#1f77b4;stroke:#1f77b4;" x="217.18406" xlink:href="#m5fd2106ec1" y="133.891053"/>
     <use style="fill:#1f77b4;stroke:#1f77b4;" x="218.793346" xlink:href="#m5fd2106ec1" y="144.581311"/>
     <use style="fill:#1f77b4;stroke:#1f77b4;" x="237.415086" xlink:href="#m5fd2106ec1" y="134.350849"/>
     <use style="fill:#1f77b4;stroke:#1f77b4;" x="200.516454" xlink:href="#m5fd2106ec1" y="129.63794"/>
     <use style="fill:#1f77b4;stroke:#1f77b4;" x="210.402069" xlink:href="#m5fd2106ec1" y="153.89218"/>
     <use style="fill:#1f77b4;stroke:#1f77b4;" x="200.516454" xlink:href="#m5fd2106ec1" y="126.649265"/>
     <use style="fill:#1f77b4;stroke:#1f77b4;" x="211.896406" xlink:href="#m5fd2106ec1" y="131.132277"/>
     <use style="fill:#1f77b4;stroke:#1f77b4;" x="230.862992" xlink:href="#m5fd2106ec1" y="167.226265"/>
     <use style="fill:#1f77b4;stroke:#1f77b4;" x="234.886208" xlink:href="#m5fd2106ec1" y="167.686061"/>
     <use style="fill:#1f77b4;stroke:#1f77b4;" x="235.690851" xlink:href="#m5fd2106ec1" y="135.730237"/>
     <use style="fill:#1f77b4;stroke:#1f77b4;" x="191.205584" xlink:href="#m5fd2106ec1" y="193.549588"/>
     <use style="fill:#1f77b4;stroke:#1f77b4;" x="170.284865" xlink:href="#m5fd2106ec1" y="210.906889"/>
     <use style="fill:#1f77b4;stroke:#1f77b4;" x="173.618386" xlink:href="#m5fd2106ec1" y="223.091484"/>
     <use style="fill:#1f77b4;stroke:#1f77b4;" x="192.355075" xlink:href="#m5fd2106ec1" y="203.090356"/>
     <use style="fill:#1f77b4;stroke:#1f77b4;" x="195.573647" xlink:href="#m5fd2106ec1" y="166.421622"/>
     <use style="fill:#1f77b4;stroke:#1f77b4;" x="190.51589" xlink:href="#m5fd2106ec1" y="181.709841"/>
     <use style="fill:#1f77b4;stroke:#1f77b4;" x="201.206148" xlink:href="#m5fd2106ec1" y="195.848569"/>
     <use style="fill:#1f77b4;stroke:#1f77b4;" x="209.367528" xlink:href="#m5fd2106ec1" y="139.408605"/>
     <use style="fill:#1f77b4;stroke:#1f77b4;" x="205.68916" xlink:href="#m5fd2106ec1" y="141.822535"/>
     <use style="fill:#1f77b4;stroke:#1f77b4;" x="205.114414" xlink:href="#m5fd2106ec1" y="146.420495"/>
     <use style="fill:#1f77b4;stroke:#1f77b4;" x="173.963233" xlink:href="#m5fd2106ec1" y="164.467489"/>
     <use style="fill:#1f77b4;stroke:#1f77b4;" x="252.01361" xlink:href="#m5fd2106ec1" y="74.922212"/>
     <use style="fill:#1f77b4;stroke:#1f77b4;" x="243.162536" xlink:href="#m5fd2106ec1" y="97.10737"/>
     <use style="fill:#1f77b4;stroke:#1f77b4;" x="255.806927" xlink:href="#m5fd2106ec1" y="99.40635"/>
     <use style="fill:#1f77b4;stroke:#1f77b4;" x="294.429794" xlink:href="#m5fd2106ec1" y="79.175325"/>
     <use style="fill:#1f77b4;stroke:#1f77b4;" x="243.392434" xlink:href="#m5fd2106ec1" y="94.923339"/>
     <use style="fill:#1f77b4;stroke:#1f77b4;" x="237.874882" xlink:href="#m5fd2106ec1" y="105.26875"/>
     <use style="fill:#1f77b4;stroke:#1f77b4;" x="233.851667" xlink:href="#m5fd2106ec1" y="89.520736"/>
     <use style="fill:#1f77b4;stroke:#1f77b4;" x="281.095709" xlink:href="#m5fd2106ec1" y="30.321996"/>
     <use style="fill:#1f77b4;stroke:#1f77b4;" x="260.979633" xlink:href="#m5fd2106ec1" y="45.725163"/>
     <use style="fill:#1f77b4;stroke:#1f77b4;" x="252.588355" xlink:href="#m5fd2106ec1" y="114.119824"/>
     <use style="fill:#1f77b4;stroke:#1f77b4;" x="241.208403" xlink:href="#m5fd2106ec1" y="111.246098"/>
     <use style="fill:#1f77b4;stroke:#1f77b4;" x="286.038516" xlink:href="#m5fd2106ec1" y="96.187778"/>
     <use style="fill:#1f77b4;stroke:#1f77b4;" x="286.84316" xlink:href="#m5fd2106ec1" y="64.117005"/>
     <use style="fill:#1f77b4;stroke:#1f77b4;" x="276.267851" xlink:href="#m5fd2106ec1" y="52.737053"/>
     <use style="fill:#1f77b4;stroke:#1f77b4;" x="279.601372" xlink:href="#m5fd2106ec1" y="54.806135"/>
     <use style="fill:#1f77b4;stroke:#1f77b4;" x="262.359021" xlink:href="#m5fd2106ec1" y="76.991294"/>
     <use style="fill:#1f77b4;stroke:#1f77b4;" x="275.348259" xlink:href="#m5fd2106ec1" y="87.221756"/>
     <use style="fill:#1f77b4;stroke:#1f77b4;" x="264.543052" xlink:href="#m5fd2106ec1" y="33.770467"/>
     <use style="fill:#1f77b4;stroke:#1f77b4;" x="306.269542" xlink:href="#m5fd2106ec1" y="31.01169"/>
     <use style="fill:#1f77b4;stroke:#1f77b4;" x="306.154593" xlink:href="#m5fd2106ec1" y="45.150418"/>
     <use style="fill:#1f77b4;stroke:#1f77b4;" x="277.762188" xlink:href="#m5fd2106ec1" y="30.092098"/>
     <use style="fill:#1f77b4;stroke:#1f77b4;" x="279.026627" xlink:href="#m5fd2106ec1" y="77.106243"/>
     <use style="fill:#1f77b4;stroke:#1f77b4;" x="267.186879" xlink:href="#m5fd2106ec1" y="65.611342"/>
     <use style="fill:#1f77b4;stroke:#1f77b4;" x="286.383363" xlink:href="#m5fd2106ec1" y="92.624359"/>
     <use style="fill:#1f77b4;stroke:#1f77b4;" x="243.277485" xlink:href="#m5fd2106ec1" y="20.321433"/>
     <use style="fill:#1f77b4;stroke:#1f77b4;" x="240.748607" xlink:href="#m5fd2106ec1" y="80.89956"/>
     <use style="fill:#1f77b4;stroke:#1f77b4;" x="280.635913" xlink:href="#m5fd2106ec1" y="57.67986"/>
     <use style="fill:#1f77b4;stroke:#1f77b4;" x="250.979069" xlink:href="#m5fd2106ec1" y="45.265367"/>
     <use style="fill:#1f77b4;stroke:#1f77b4;" x="246.381109" xlink:href="#m5fd2106ec1" y="65.726291"/>
     <use style="fill:#1f77b4;stroke:#1f77b4;" x="266.152338" xlink:href="#m5fd2106ec1" y="71.703639"/>
     <use style="fill:#1f77b4;stroke:#1f77b4;" x="247.875446" xlink:href="#m5fd2106ec1" y="129.293093"/>
     <use style="fill:#1f77b4;stroke:#1f77b4;" x="267.301828" xlink:href="#m5fd2106ec1" y="109.521863"/>
     <use style="fill:#1f77b4;stroke:#1f77b4;" x="290.061732" xlink:href="#m5fd2106ec1" y="83.888234"/>
     <use style="fill:#1f77b4;stroke:#1f77b4;" x="265.807491" xlink:href="#m5fd2106ec1" y="54.461288"/>
     <use style="fill:#1f77b4;stroke:#1f77b4;" x="274.313718" xlink:href="#m5fd2106ec1" y="68.370118"/>
     <use style="fill:#1f77b4;stroke:#1f77b4;" x="277.877137" xlink:href="#m5fd2106ec1" y="92.624359"/>
     <use style="fill:#1f77b4;stroke:#1f77b4;" x="280.176117" xlink:href="#m5fd2106ec1" y="79.405223"/>
     <use style="fill:#1f77b4;stroke:#1f77b4;" x="253.392998" xlink:href="#m5fd2106ec1" y="93.084155"/>
     <use style="fill:#1f77b4;stroke:#1f77b4;" x="275.23331" xlink:href="#m5fd2106ec1" y="19.286892"/>
     <use style="fill:#1f77b4;stroke:#1f77b4;" x="265.002848" xlink:href="#m5fd2106ec1" y="79.290274"/>
     <use style="fill:#1f77b4;stroke:#1f77b4;" x="275.923004" xlink:href="#m5fd2106ec1" y="84.577928"/>
     <use style="fill:#1f77b4;stroke:#1f77b4;" x="278.451882" xlink:href="#m5fd2106ec1" y="62.047923"/>
     <use style="fill:#1f77b4;stroke:#1f77b4;" x="291.211222" xlink:href="#m5fd2106ec1" y="75.841804"/>
     <use style="fill:#1f77b4;stroke:#1f77b4;" x="272.244635" xlink:href="#m5fd2106ec1" y="67.105679"/>
     <use style="fill:#1f77b4;stroke:#1f77b4;" x="301.441684" xlink:href="#m5fd2106ec1" y="32.16118"/>
     <use style="fill:#1f77b4;stroke:#1f77b4;" x="270.175553" xlink:href="#m5fd2106ec1" y="49.058685"/>
     <use style="fill:#1f77b4;stroke:#1f77b4;" x="290.636477" xlink:href="#m5fd2106ec1" y="91.015073"/>
     <use style="fill:#1f77b4;stroke:#1f77b4;" x="281.210658" xlink:href="#m5fd2106ec1" y="68.714965"/>
     <use style="fill:#1f77b4;stroke:#1f77b4;" x="275.923004" xlink:href="#m5fd2106ec1" y="70.784047"/>
     <use style="fill:#1f77b4;stroke:#1f77b4;" x="286.038516" xlink:href="#m5fd2106ec1" y="40.207611"/>
     <use style="fill:#1f77b4;stroke:#1f77b4;" x="298.108162" xlink:href="#m5fd2106ec1" y="60.668535"/>
     <use style="fill:#1f77b4;stroke:#1f77b4;" x="252.243508" xlink:href="#m5fd2106ec1" y="90.095481"/>
     <use style="fill:#1f77b4;stroke:#1f77b4;" x="232.012482" xlink:href="#m5fd2106ec1" y="124.235336"/>
     <use style="fill:#1f77b4;stroke:#1f77b4;" x="276.152902" xlink:href="#m5fd2106ec1" y="99.176452"/>
     <use style="fill:#1f77b4;stroke:#1f77b4;" x="254.427539" xlink:href="#m5fd2106ec1" y="170.099991"/>
     <use style="fill:#1f77b4;stroke:#1f77b4;" x="287.417905" xlink:href="#m5fd2106ec1" y="84.118132"/>
     <use style="fill:#1f77b4;stroke:#1f77b4;" x="255.806927" xlink:href="#m5fd2106ec1" y="64.117005"/>
     <use style="fill:#1f77b4;stroke:#1f77b4;" x="266.497185" xlink:href="#m5fd2106ec1" y="99.291401"/>
     <use style="fill:#1f77b4;stroke:#1f77b4;" x="276.3828" xlink:href="#m5fd2106ec1" y="37.908631"/>
     <use style="fill:#1f77b4;stroke:#1f77b4;" x="266.842032" xlink:href="#m5fd2106ec1" y="120.901815"/>
     <use style="fill:#1f77b4;stroke:#1f77b4;" x="274.313718" xlink:href="#m5fd2106ec1" y="99.291401"/>
     <use style="fill:#1f77b4;stroke:#1f77b4;" x="282.360148" xlink:href="#m5fd2106ec1" y="80.324815"/>
     <use style="fill:#1f77b4;stroke:#1f77b4;" x="218.33355" xlink:href="#m5fd2106ec1" y="110.211557"/>
     <use style="fill:#1f77b4;stroke:#1f77b4;" x="232.932075" xlink:href="#m5fd2106ec1" y="114.694569"/>
     <use style="fill:#1f77b4;stroke:#1f77b4;" x="234.426412" xlink:href="#m5fd2106ec1" y="122.62605"/>
     <use style="fill:#1f77b4;stroke:#1f77b4;" x="240.978505" xlink:href="#m5fd2106ec1" y="156.995804"/>
     <use style="fill:#1f77b4;stroke:#1f77b4;" x="253.507947" xlink:href="#m5fd2106ec1" y="80.209866"/>
     <use style="fill:#1f77b4;stroke:#1f77b4;" x="214.080437" xlink:href="#m5fd2106ec1" y="106.073393"/>
     <use style="fill:#1f77b4;stroke:#1f77b4;" x="220.402633" xlink:href="#m5fd2106ec1" y="116.188906"/>
     <use style="fill:#1f77b4;stroke:#1f77b4;" x="241.783148" xlink:href="#m5fd2106ec1" y="111.590945"/>
     <use style="fill:#1f77b4;stroke:#1f77b4;" x="186.837522" xlink:href="#m5fd2106ec1" y="157.570549"/>
     <use style="fill:#1f77b4;stroke:#1f77b4;" x="195.918494" xlink:href="#m5fd2106ec1" y="149.639067"/>
     <use style="fill:#1f77b4;stroke:#1f77b4;" x="196.033443" xlink:href="#m5fd2106ec1" y="167.111316"/>
     <use style="fill:#1f77b4;stroke:#1f77b4;" x="183.733899" xlink:href="#m5fd2106ec1" y="186.077903"/>
     <use style="fill:#1f77b4;stroke:#1f77b4;" x="161.893587" xlink:href="#m5fd2106ec1" y="175.732492"/>
     <use style="fill:#1f77b4;stroke:#1f77b4;" x="151.548177" xlink:href="#m5fd2106ec1" y="179.755707"/>
     <use style="fill:#1f77b4;stroke:#1f77b4;" x="155.226545" xlink:href="#m5fd2106ec1" y="191.595455"/>
     <use style="fill:#1f77b4;stroke:#1f77b4;" x="183.733899" xlink:href="#m5fd2106ec1" y="181.135095"/>
     <use style="fill:#1f77b4;stroke:#1f77b4;" x="177.296754" xlink:href="#m5fd2106ec1" y="167.456163"/>
     <use style="fill:#1f77b4;stroke:#1f77b4;" x="147.065165" xlink:href="#m5fd2106ec1" y="175.387645"/>
     <use style="fill:#1f77b4;stroke:#1f77b4;" x="169.135375" xlink:href="#m5fd2106ec1" y="181.594892"/>
     <use style="fill:#1f77b4;stroke:#1f77b4;" x="161.778638" xlink:href="#m5fd2106ec1" y="165.272132"/>
     <use style="fill:#1f77b4;stroke:#1f77b4;" x="168.330732" xlink:href="#m5fd2106ec1" y="164.927285"/>
     <use style="fill:#1f77b4;stroke:#1f77b4;" x="152.237871" xlink:href="#m5fd2106ec1" y="186.537699"/>
     <use style="fill:#1f77b4;stroke:#1f77b4;" x="159.364709" xlink:href="#m5fd2106ec1" y="191.710404"/>
     <use style="fill:#1f77b4;stroke:#1f77b4;" x="150.168788" xlink:href="#m5fd2106ec1" y="183.089229"/>
     <use style="fill:#1f77b4;stroke:#1f77b4;" x="170.169916" xlink:href="#m5fd2106ec1" y="205.734183"/>
     <use style="fill:#1f77b4;stroke:#1f77b4;" x="158.215219" xlink:href="#m5fd2106ec1" y="166.536571"/>
     <use style="fill:#1f77b4;stroke:#1f77b4;" x="150.513635" xlink:href="#m5fd2106ec1" y="160.789121"/>
     <use style="fill:#1f77b4;stroke:#1f77b4;" x="152.467769" xlink:href="#m5fd2106ec1" y="176.881982"/>
     <use style="fill:#1f77b4;stroke:#1f77b4;" x="173.618386" xlink:href="#m5fd2106ec1" y="159.984478"/>
     <use style="fill:#1f77b4;stroke:#1f77b4;" x="165.686905" xlink:href="#m5fd2106ec1" y="171.594328"/>
     <use style="fill:#1f77b4;stroke:#1f77b4;" x="169.940018" xlink:href="#m5fd2106ec1" y="181.135095"/>
     <use style="fill:#1f77b4;stroke:#1f77b4;" x="183.848848" xlink:href="#m5fd2106ec1" y="173.548461"/>
     <use style="fill:#1f77b4;stroke:#1f77b4;" x="163.84772" xlink:href="#m5fd2106ec1" y="210.562042"/>
     <use style="fill:#1f77b4;stroke:#1f77b4;" x="180.745225" xlink:href="#m5fd2106ec1" y="199.756835"/>
     <use style="fill:#1f77b4;stroke:#1f77b4;" x="175.687468" xlink:href="#m5fd2106ec1" y="175.157747"/>
     <use style="fill:#1f77b4;stroke:#1f77b4;" x="168.790528" xlink:href="#m5fd2106ec1" y="163.892744"/>
     <use style="fill:#1f77b4;stroke:#1f77b4;" x="149.364145" xlink:href="#m5fd2106ec1" y="191.595455"/>
     <use style="fill:#1f77b4;stroke:#1f77b4;" x="154.766749" xlink:href="#m5fd2106ec1" y="201.48107"/>
     <use style="fill:#1f77b4;stroke:#1f77b4;" x="153.157463" xlink:href="#m5fd2106ec1" y="174.468053"/>
     <use style="fill:#1f77b4;stroke:#1f77b4;" x="169.71012" xlink:href="#m5fd2106ec1" y="192.629996"/>
     <use style="fill:#1f77b4;stroke:#1f77b4;" x="160.284301" xlink:href="#m5fd2106ec1" y="201.710968"/>
     <use style="fill:#1f77b4;stroke:#1f77b4;" x="160.284301" xlink:href="#m5fd2106ec1" y="196.193416"/>
     <use style="fill:#1f77b4;stroke:#1f77b4;" x="146.260522" xlink:href="#m5fd2106ec1" y="179.870656"/>
     <use style="fill:#1f77b4;stroke:#1f77b4;" x="166.951344" xlink:href="#m5fd2106ec1" y="214.010512"/>
     <use style="fill:#1f77b4;stroke:#1f77b4;" x="154.192004" xlink:href="#m5fd2106ec1" y="190.445965"/>
     <use style="fill:#1f77b4;stroke:#1f77b4;" x="146.375471" xlink:href="#m5fd2106ec1" y="195.158875"/>
     <use style="fill:#1f77b4;stroke:#1f77b4;" x="159.709556" xlink:href="#m5fd2106ec1" y="191.135659"/>
     <use style="fill:#1f77b4;stroke:#1f77b4;" x="175.227672" xlink:href="#m5fd2106ec1" y="170.789685"/>
     <use style="fill:#1f77b4;stroke:#1f77b4;" x="161.663689" xlink:href="#m5fd2106ec1" y="201.48107"/>
     <use style="fill:#1f77b4;stroke:#1f77b4;" x="189.481349" xlink:href="#m5fd2106ec1" y="184.698515"/>
     <use style="fill:#1f77b4;stroke:#1f77b4;" x="177.066856" xlink:href="#m5fd2106ec1" y="184.238719"/>
     <use style="fill:#1f77b4;stroke:#1f77b4;" x="170.284865" xlink:href="#m5fd2106ec1" y="199.411988"/>
     <use style="fill:#1f77b4;stroke:#1f77b4;" x="190.51589" xlink:href="#m5fd2106ec1" y="154.926722"/>
     <use style="fill:#1f77b4;stroke:#1f77b4;" x="151.08838" xlink:href="#m5fd2106ec1" y="170.099991"/>
     <use style="fill:#1f77b4;stroke:#1f77b4;" x="154.881698" xlink:href="#m5fd2106ec1" y="164.35254"/>
     <use style="fill:#1f77b4;stroke:#1f77b4;" x="150.168788" xlink:href="#m5fd2106ec1" y="201.710968"/>
     <use style="fill:#1f77b4;stroke:#1f77b4;" x="166.951344" xlink:href="#m5fd2106ec1" y="201.596019"/>
     <use style="fill:#1f77b4;stroke:#1f77b4;" x="163.043077" xlink:href="#m5fd2106ec1" y="223.436331"/>
     <use style="fill:#1f77b4;stroke:#1f77b4;" x="154.996647" xlink:href="#m5fd2106ec1" y="206.538826"/>
     <use style="fill:#1f77b4;stroke:#1f77b4;" x="164.997211" xlink:href="#m5fd2106ec1" y="201.366121"/>
     <use style="fill:#1f77b4;stroke:#1f77b4;" x="182.124613" xlink:href="#m5fd2106ec1" y="196.653212"/>
     <use style="fill:#1f77b4;stroke:#1f77b4;" x="144.996083" xlink:href="#m5fd2106ec1" y="191.135659"/>
     <use style="fill:#1f77b4;stroke:#1f77b4;" x="184.653491" xlink:href="#m5fd2106ec1" y="184.698515"/>
     <use style="fill:#1f77b4;stroke:#1f77b4;" x="202.010791" xlink:href="#m5fd2106ec1" y="193.434639"/>
     <use style="fill:#1f77b4;stroke:#1f77b4;" x="193.734463" xlink:href="#m5fd2106ec1" y="186.077903"/>
     <use style="fill:#1f77b4;stroke:#1f77b4;" x="202.240689" xlink:href="#m5fd2106ec1" y="175.042798"/>
     <use style="fill:#1f77b4;stroke:#1f77b4;" x="177.296754" xlink:href="#m5fd2106ec1" y="164.697387"/>
     <use style="fill:#1f77b4;stroke:#1f77b4;" x="205.344312" xlink:href="#m5fd2106ec1" y="203.435203"/>
     <use style="fill:#1f77b4;stroke:#1f77b4;" x="186.262777" xlink:href="#m5fd2106ec1" y="186.652648"/>
     <use style="fill:#1f77b4;stroke:#1f77b4;" x="203.045332" xlink:href="#m5fd2106ec1" y="213.665665"/>
     <use style="fill:#1f77b4;stroke:#1f77b4;" x="165.686905" xlink:href="#m5fd2106ec1" y="210.79194"/>
     <use style="fill:#1f77b4;stroke:#1f77b4;" x="197.987576" xlink:href="#m5fd2106ec1" y="190.790812"/>
     <use style="fill:#1f77b4;stroke:#1f77b4;" x="182.929256" xlink:href="#m5fd2106ec1" y="188.376883"/>
     <use style="fill:#1f77b4;stroke:#1f77b4;" x="185.343185" xlink:href="#m5fd2106ec1" y="196.078467"/>
     <use style="fill:#1f77b4;stroke:#1f77b4;" x="163.962669" xlink:href="#m5fd2106ec1" y="195.73362"/>
     <use style="fill:#1f77b4;stroke:#1f77b4;" x="214.195386" xlink:href="#m5fd2106ec1" y="184.698515"/>
     <use style="fill:#1f77b4;stroke:#1f77b4;" x="168.675579" xlink:href="#m5fd2106ec1" y="191.710404"/>
     <use style="fill:#1f77b4;stroke:#1f77b4;" x="184.538542" xlink:href="#m5fd2106ec1" y="183.893872"/>
    </g>
   </g>
   <g id="matplotlib.axis_1">
    <g id="xtick_1">
     <g id="line2d_1">
      <defs>
       <path d="M 0 0 
L 0 3.5 
" id="m674670741c" style="stroke:#000000;stroke-width:0.8;"/>
      </defs>
      <g>
       <use style="stroke:#000000;stroke-width:0.8;" x="72.578208" xlink:href="#m674670741c" y="229.521875"/>
      </g>
     </g>
     <g id="text_1">
      <!-- 2.0 -->
      <g transform="translate(64.626645 244.120313)scale(0.1 -0.1)">
       <defs>
        <path d="M 1228 531 
L 3431 531 
L 3431 0 
L 469 0 
L 469 531 
Q 828 903 1448 1529 
Q 2069 2156 2228 2338 
Q 2531 2678 2651 2914 
Q 2772 3150 2772 3378 
Q 2772 3750 2511 3984 
Q 2250 4219 1831 4219 
Q 1534 4219 1204 4116 
Q 875 4013 500 3803 
L 500 4441 
Q 881 4594 1212 4672 
Q 1544 4750 1819 4750 
Q 2544 4750 2975 4387 
Q 3406 4025 3406 3419 
Q 3406 3131 3298 2873 
Q 3191 2616 2906 2266 
Q 2828 2175 2409 1742 
Q 1991 1309 1228 531 
z
" id="DejaVuSans-32" transform="scale(0.015625)"/>
        <path d="M 684 794 
L 1344 794 
L 1344 0 
L 684 0 
L 684 794 
z
" id="DejaVuSans-2e" transform="scale(0.015625)"/>
        <path d="M 2034 4250 
Q 1547 4250 1301 3770 
Q 1056 3291 1056 2328 
Q 1056 1369 1301 889 
Q 1547 409 2034 409 
Q 2525 409 2770 889 
Q 3016 1369 3016 2328 
Q 3016 3291 2770 3770 
Q 2525 4250 2034 4250 
z
M 2034 4750 
Q 2819 4750 3233 4129 
Q 3647 3509 3647 2328 
Q 3647 1150 3233 529 
Q 2819 -91 2034 -91 
Q 1250 -91 836 529 
Q 422 1150 422 2328 
Q 422 3509 836 4129 
Q 1250 4750 2034 4750 
z
" id="DejaVuSans-30" transform="scale(0.015625)"/>
       </defs>
       <use xlink:href="#DejaVuSans-32"/>
       <use x="63.623047" xlink:href="#DejaVuSans-2e"/>
       <use x="95.410156" xlink:href="#DejaVuSans-30"/>
      </g>
     </g>
    </g>
    <g id="xtick_2">
     <g id="line2d_2">
      <g>
       <use style="stroke:#000000;stroke-width:0.8;" x="130.052712" xlink:href="#m674670741c" y="229.521875"/>
      </g>
     </g>
     <g id="text_2">
      <!-- 2.5 -->
      <g transform="translate(122.101149 244.120313)scale(0.1 -0.1)">
       <defs>
        <path d="M 691 4666 
L 3169 4666 
L 3169 4134 
L 1269 4134 
L 1269 2991 
Q 1406 3038 1543 3061 
Q 1681 3084 1819 3084 
Q 2600 3084 3056 2656 
Q 3513 2228 3513 1497 
Q 3513 744 3044 326 
Q 2575 -91 1722 -91 
Q 1428 -91 1123 -41 
Q 819 9 494 109 
L 494 744 
Q 775 591 1075 516 
Q 1375 441 1709 441 
Q 2250 441 2565 725 
Q 2881 1009 2881 1497 
Q 2881 1984 2565 2268 
Q 2250 2553 1709 2553 
Q 1456 2553 1204 2497 
Q 953 2441 691 2322 
L 691 4666 
z
" id="DejaVuSans-35" transform="scale(0.015625)"/>
       </defs>
       <use xlink:href="#DejaVuSans-32"/>
       <use x="63.623047" xlink:href="#DejaVuSans-2e"/>
       <use x="95.410156" xlink:href="#DejaVuSans-35"/>
      </g>
     </g>
    </g>
    <g id="xtick_3">
     <g id="line2d_3">
      <g>
       <use style="stroke:#000000;stroke-width:0.8;" x="187.527216" xlink:href="#m674670741c" y="229.521875"/>
      </g>
     </g>
     <g id="text_3">
      <!-- 3.0 -->
      <g transform="translate(179.575654 244.120313)scale(0.1 -0.1)">
       <defs>
        <path d="M 2597 2516 
Q 3050 2419 3304 2112 
Q 3559 1806 3559 1356 
Q 3559 666 3084 287 
Q 2609 -91 1734 -91 
Q 1441 -91 1130 -33 
Q 819 25 488 141 
L 488 750 
Q 750 597 1062 519 
Q 1375 441 1716 441 
Q 2309 441 2620 675 
Q 2931 909 2931 1356 
Q 2931 1769 2642 2001 
Q 2353 2234 1838 2234 
L 1294 2234 
L 1294 2753 
L 1863 2753 
Q 2328 2753 2575 2939 
Q 2822 3125 2822 3475 
Q 2822 3834 2567 4026 
Q 2313 4219 1838 4219 
Q 1578 4219 1281 4162 
Q 984 4106 628 3988 
L 628 4550 
Q 988 4650 1302 4700 
Q 1616 4750 1894 4750 
Q 2613 4750 3031 4423 
Q 3450 4097 3450 3541 
Q 3450 3153 3228 2886 
Q 3006 2619 2597 2516 
z
" id="DejaVuSans-33" transform="scale(0.015625)"/>
       </defs>
       <use xlink:href="#DejaVuSans-33"/>
       <use x="63.623047" xlink:href="#DejaVuSans-2e"/>
       <use x="95.410156" xlink:href="#DejaVuSans-30"/>
      </g>
     </g>
    </g>
    <g id="xtick_4">
     <g id="line2d_4">
      <g>
       <use style="stroke:#000000;stroke-width:0.8;" x="245.00172" xlink:href="#m674670741c" y="229.521875"/>
      </g>
     </g>
     <g id="text_4">
      <!-- 3.5 -->
      <g transform="translate(237.050158 244.120313)scale(0.1 -0.1)">
       <use xlink:href="#DejaVuSans-33"/>
       <use x="63.623047" xlink:href="#DejaVuSans-2e"/>
       <use x="95.410156" xlink:href="#DejaVuSans-35"/>
      </g>
     </g>
    </g>
    <g id="xtick_5">
     <g id="line2d_5">
      <g>
       <use style="stroke:#000000;stroke-width:0.8;" x="302.476225" xlink:href="#m674670741c" y="229.521875"/>
      </g>
     </g>
     <g id="text_5">
      <!-- 4.0 -->
      <g transform="translate(294.524662 244.120313)scale(0.1 -0.1)">
       <defs>
        <path d="M 2419 4116 
L 825 1625 
L 2419 1625 
L 2419 4116 
z
M 2253 4666 
L 3047 4666 
L 3047 1625 
L 3713 1625 
L 3713 1100 
L 3047 1100 
L 3047 0 
L 2419 0 
L 2419 1100 
L 313 1100 
L 313 1709 
L 2253 4666 
z
" id="DejaVuSans-34" transform="scale(0.015625)"/>
       </defs>
       <use xlink:href="#DejaVuSans-34"/>
       <use x="63.623047" xlink:href="#DejaVuSans-2e"/>
       <use x="95.410156" xlink:href="#DejaVuSans-30"/>
      </g>
     </g>
    </g>
    <g id="xtick_6">
     <g id="line2d_6">
      <g>
       <use style="stroke:#000000;stroke-width:0.8;" x="359.950729" xlink:href="#m674670741c" y="229.521875"/>
      </g>
     </g>
     <g id="text_6">
      <!-- 4.5 -->
      <g transform="translate(351.999166 244.120313)scale(0.1 -0.1)">
       <use xlink:href="#DejaVuSans-34"/>
       <use x="63.623047" xlink:href="#DejaVuSans-2e"/>
       <use x="95.410156" xlink:href="#DejaVuSans-35"/>
      </g>
     </g>
    </g>
   </g>
   <g id="matplotlib.axis_2">
    <g id="ytick_1">
     <g id="line2d_7">
      <defs>
       <path d="M 0 0 
L -3.5 0 
" id="m57341884c3" style="stroke:#000000;stroke-width:0.8;"/>
      </defs>
      <g>
       <use style="stroke:#000000;stroke-width:0.8;" x="40.065625" xlink:href="#m57341884c3" y="211.826481"/>
      </g>
     </g>
     <g id="text_7">
      <!-- 5.00 -->
      <g transform="translate(10.8 215.6257)scale(0.1 -0.1)">
       <use xlink:href="#DejaVuSans-35"/>
       <use x="63.623047" xlink:href="#DejaVuSans-2e"/>
       <use x="95.410156" xlink:href="#DejaVuSans-30"/>
       <use x="159.033203" xlink:href="#DejaVuSans-30"/>
      </g>
     </g>
    </g>
    <g id="ytick_2">
     <g id="line2d_8">
      <g>
       <use style="stroke:#000000;stroke-width:0.8;" x="40.065625" xlink:href="#m57341884c3" y="183.089229"/>
      </g>
     </g>
     <g id="text_8">
      <!-- 5.25 -->
      <g transform="translate(10.8 186.888447)scale(0.1 -0.1)">
       <use xlink:href="#DejaVuSans-35"/>
       <use x="63.623047" xlink:href="#DejaVuSans-2e"/>
       <use x="95.410156" xlink:href="#DejaVuSans-32"/>
       <use x="159.033203" xlink:href="#DejaVuSans-35"/>
      </g>
     </g>
    </g>
    <g id="ytick_3">
     <g id="line2d_9">
      <g>
       <use style="stroke:#000000;stroke-width:0.8;" x="40.065625" xlink:href="#m57341884c3" y="154.351977"/>
      </g>
     </g>
     <g id="text_9">
      <!-- 5.50 -->
      <g transform="translate(10.8 158.151195)scale(0.1 -0.1)">
       <use xlink:href="#DejaVuSans-35"/>
       <use x="63.623047" xlink:href="#DejaVuSans-2e"/>
       <use x="95.410156" xlink:href="#DejaVuSans-35"/>
       <use x="159.033203" xlink:href="#DejaVuSans-30"/>
      </g>
     </g>
    </g>
    <g id="ytick_4">
     <g id="line2d_10">
      <g>
       <use style="stroke:#000000;stroke-width:0.8;" x="40.065625" xlink:href="#m57341884c3" y="125.614724"/>
      </g>
     </g>
     <g id="text_10">
      <!-- 5.75 -->
      <g transform="translate(10.8 129.413943)scale(0.1 -0.1)">
       <defs>
        <path d="M 525 4666 
L 3525 4666 
L 3525 4397 
L 1831 0 
L 1172 0 
L 2766 4134 
L 525 4134 
L 525 4666 
z
" id="DejaVuSans-37" transform="scale(0.015625)"/>
       </defs>
       <use xlink:href="#DejaVuSans-35"/>
       <use x="63.623047" xlink:href="#DejaVuSans-2e"/>
       <use x="95.410156" xlink:href="#DejaVuSans-37"/>
       <use x="159.033203" xlink:href="#DejaVuSans-35"/>
      </g>
     </g>
    </g>
    <g id="ytick_5">
     <g id="line2d_11">
      <g>
       <use style="stroke:#000000;stroke-width:0.8;" x="40.065625" xlink:href="#m57341884c3" y="96.877472"/>
      </g>
     </g>
     <g id="text_11">
      <!-- 6.00 -->
      <g transform="translate(10.8 100.676691)scale(0.1 -0.1)">
       <defs>
        <path d="M 2113 2584 
Q 1688 2584 1439 2293 
Q 1191 2003 1191 1497 
Q 1191 994 1439 701 
Q 1688 409 2113 409 
Q 2538 409 2786 701 
Q 3034 994 3034 1497 
Q 3034 2003 2786 2293 
Q 2538 2584 2113 2584 
z
M 3366 4563 
L 3366 3988 
Q 3128 4100 2886 4159 
Q 2644 4219 2406 4219 
Q 1781 4219 1451 3797 
Q 1122 3375 1075 2522 
Q 1259 2794 1537 2939 
Q 1816 3084 2150 3084 
Q 2853 3084 3261 2657 
Q 3669 2231 3669 1497 
Q 3669 778 3244 343 
Q 2819 -91 2113 -91 
Q 1303 -91 875 529 
Q 447 1150 447 2328 
Q 447 3434 972 4092 
Q 1497 4750 2381 4750 
Q 2619 4750 2861 4703 
Q 3103 4656 3366 4563 
z
" id="DejaVuSans-36" transform="scale(0.015625)"/>
       </defs>
       <use xlink:href="#DejaVuSans-36"/>
       <use x="63.623047" xlink:href="#DejaVuSans-2e"/>
       <use x="95.410156" xlink:href="#DejaVuSans-30"/>
       <use x="159.033203" xlink:href="#DejaVuSans-30"/>
      </g>
     </g>
    </g>
    <g id="ytick_6">
     <g id="line2d_12">
      <g>
       <use style="stroke:#000000;stroke-width:0.8;" x="40.065625" xlink:href="#m57341884c3" y="68.14022"/>
      </g>
     </g>
     <g id="text_12">
      <!-- 6.25 -->
      <g transform="translate(10.8 71.939439)scale(0.1 -0.1)">
       <use xlink:href="#DejaVuSans-36"/>
       <use x="63.623047" xlink:href="#DejaVuSans-2e"/>
       <use x="95.410156" xlink:href="#DejaVuSans-32"/>
       <use x="159.033203" xlink:href="#DejaVuSans-35"/>
      </g>
     </g>
    </g>
    <g id="ytick_7">
     <g id="line2d_13">
      <g>
       <use style="stroke:#000000;stroke-width:0.8;" x="40.065625" xlink:href="#m57341884c3" y="39.402968"/>
      </g>
     </g>
     <g id="text_13">
      <!-- 6.50 -->
      <g transform="translate(10.8 43.202187)scale(0.1 -0.1)">
       <use xlink:href="#DejaVuSans-36"/>
       <use x="63.623047" xlink:href="#DejaVuSans-2e"/>
       <use x="95.410156" xlink:href="#DejaVuSans-35"/>
       <use x="159.033203" xlink:href="#DejaVuSans-30"/>
      </g>
     </g>
    </g>
   </g>
   <g id="patch_3">
    <path d="M 40.065625 229.521875 
L 40.065625 13.201347 
" style="fill:none;stroke:#000000;stroke-linecap:square;stroke-linejoin:miter;stroke-width:0.8;"/>
   </g>
   <g id="patch_4">
    <path d="M 411.2 229.521875 
L 411.2 13.201347 
" style="fill:none;stroke:#000000;stroke-linecap:square;stroke-linejoin:miter;stroke-width:0.8;"/>
   </g>
   <g id="patch_5">
    <path d="M 40.065625 229.521875 
L 411.2 229.521875 
" style="fill:none;stroke:#000000;stroke-linecap:square;stroke-linejoin:miter;stroke-width:0.8;"/>
   </g>
   <g id="patch_6">
    <path d="M 40.065625 13.201347 
L 411.2 13.201347 
" style="fill:none;stroke:#000000;stroke-linecap:square;stroke-linejoin:miter;stroke-width:0.8;"/>
   </g>
  </g>
 </g>
 <defs>
  <clipPath id="pb5e8f9f701">
   <rect height="216.320528" width="371.134375" x="40.065625" y="13.201347"/>
  </clipPath>
 </defs>
</svg>
